FOR ENGLISH, PLEASE SCROLL DOWN!

~~~~~~~~~~~~~~~~~~~~~~~~~~~~~~~~~~~~~~~~~~~~~~~~~~~~~~~~~
Lost Girl - Seizoen 1

VERHAALLIJN:
¯¯¯¯¯¯¯¯¯¯¯¯
Lost Girl richt zich rondom de beeldschone en charismatische Bo, een bovennatuurlijk wezen genoemt een 'succubus' die zich voedt met de energie van mensen, soms met fatale afloop. Weigerend om haar bovennatuurlijke clan te omarmen en zijn starre hiërarchie, is Bo een afvallige die de strijd opneemt voor de underdog terwijl ze op zoek gaat naar de waarheid over haar mysterieuze afkomst.
~~~~~~~~~~~~~~~~~~~~~~~~~~~~~~~~~~~~~~~~~~~~~~~~~~~~~~~~~
Ondertitelingen: Engels & Nederlands - custom (eventueel selecteren via je mediaspeler)
Menu: Nee.
Covers: Nee.
Genre : Drama | Fantasy.

IMDb: http://www.imdb.com/title/tt1429449/
Officiële website: http://lostgirlseries.com/

~~~~~~~~~~~~~~~~~~~~~~~~~~~~~~~~~~~~~~~~~~~~~~~~~~~~~~~~~
Lost Girl - Season 1

PLOT:
¯¯¯¯¯
Lost Girl focuses on the gorgeous and charismatic Bo, a supernatural being called a succubus who feeds on the energy of humans, sometimes with fatal results. Refusing to embrace her supernatural clan and its rigid hierarchy, Bo is a renegade who takes up the fight for the underdog while searching for the truth about her own mysterious origins.

~~~~~~~~~~~~~~~~~~~~~~~~~~~~~~~~~~~~~~~~~~~~~~~~~~~~~~~~~
Subtiteles: English and Dutch - custom (eventueel selecteren via je mediaspeler)
Menu: No
Covers: No.
Genre : Drama | Fantasy.

IMDb: http://www.imdb.com/title/tt1429449/
Official website: http://lostgirlseries.com/
~~~~~~~~~~~~~~~~~~~~~~~~~~~~~~~~~~~~~~~~~~~~~~~~~~~~~~~~~
VIDEO AND AUDIO INFORMATION
¯¯¯¯¯¯¯¯¯¯¯¯¯¯¯¯¯¯¯¯¯¯¯¯¯¯¯¯¯¯
Format                           : Matroska
File size                        : 1.09 GiB
Duration                         : 43mn 27s
Overall bit rate                 : 3 601 Kbps
Encoded date                     : UTC 2010-09-27 18:31:39
Writing application              : mkvmerge v2.0.2 ('You're My Flame') built on Jul 14 2008 22:44:46
Writing library                  : libebml v0.7.7 + libmatroska v0.8.1

Video
ID                               : 1
Format                           : AVC
Format/Info                      : Advanced Video Codec
Format profile                   : High@L3.1
Format settings, CABAC           : Yes
Format settings, ReFrames        : 4 frames
Muxing mode                      : Container profile=Unknown@3.1
Codec ID                         : V_MPEG4/ISO/AVC
Duration                         : 43mn 27s
Bit rate                         : 3 214 Kbps
Width                            : 1 280 pixels
Height                           : 720 pixels
Display aspect ratio             : 16:9
Frame rate                       : 23.976 fps
Color space                      : YUV
Chroma subsampling               : 4:2:0
Bit depth                        : 8 bits
Scan type                        : Progressive
Bits/(Pixel*Frame)               : 0.145
Stream size                      : 978 MiB (87%)
Writing library                  : x264 core 104 r1713 c276662
Encoding settings                : cabac=1 / ref=5 / deblock=1:0:0 / analyse=0x3:0x113 / me=hex / subme=7 / psy=1 / psy_rd=1.00:0.00 / mixed_ref=1 / me_range=16 / chroma_me=1 / trellis=1 / 8x8dct=1 / cqm=0 / deadzone=21,11 / fast_pskip=1 / chroma_qp_offset=-2 / threads=3 / sliced_threads=0 / nr=0 / decimate=1 / interlaced=0 / constrained_intra=0 / bframes=3 / b_pyramid=1 / b_adapt=1 / b_bias=0 / direct=1 / weightb=1 / open_gop=0 / weightp=2 / keyint=240 / keyint_min=24 / scenecut=40 / intra_refresh=0 / rc=2pass / mbtree=0 / bitrate=3214 / ratetol=1.0 / qcomp=0.60 / qpmin=10 / qpmax=51 / qpstep=4 / cplxblur=20.0 / qblur=0.5 / ip_ratio=1.40 / pb_ratio=1.30 / aq=1:1.00
Language                         : English

Audio
ID                               : 2
Format                           : AC-3
Format/Info                      : Audio Coding 3
Mode extension                   : CM (complete main)
Codec ID                         : A_AC3
Duration                         : 43mn 27s
Bit rate mode                    : Constant
Bit rate                         : 384 Kbps
Channel(s)                       : 6 channels
Channel positions                : Front: L C R, Side: L R, LFE
Sampling rate                    : 48.0 KHz
Bit depth                        : 16 bits
Stream size                      : 119 MiB (11%)



*****************************************

Brought to you by
2Lions Team

Meer zien??
Kom dan eens kijken op ons forum
 
http://www.2lions-site.nl

2Lions the site to be for all your Dutch MOVIES and more

******************************************